# xmcd
#
# Track frame offsets:
#	150
#	9450
#	23400
#	34200
#	45450
#	56550
#	72600
#	82200
#	94125
#	106425
#	115575
#	130200
#
# Disc length: 1897 seconds
# Revision: 0
# Processed by: cddbd v1.5.2PL0 Copyright (c) Steve Scherf et al.
# Submitted via: dBpowerAMP V12.0
#
DISCID=9b07670c
DTITLE=Kevin Carter and Full Assurance - Not Looking Back
DYEAR=2012
DGENRE=Gospel
TTITLE0=By The One (Who Set Me Free)
TTITLE1=Not Looking Back (Heaven Bound)
TTITLE2=The Old Man (Don't Live Here Anymore)
TTITLE3=In The Sweet By and By
TTITLE4=Heaven's Bluegrass Stage
TTITLE5=His Yoke Is Easy
TTITLE6=He's My Everything
TTITLE7=The Invitation
TTITLE8=You Are My Refuge
TTITLE9=Wings of Love
TTITLE10=God's Table of Blessings
TTITLE11=A Place Called Home
EXTD=
EXTT0=
EXTT1=
EXTT2=
EXTT3=
EXTT4=
EXTT5=
EXTT6=
EXTT7=
EXTT8=
EXTT9=
EXTT10=
EXTT11=
PLAYORDER=
